<?xml version="1.0"?>
<svg xmlns="http://www.w3.org/2000/svg" id="Capa_1" enable-background="new 0 0 511.979 511.979" height="512px" viewBox="0 0 511.979 511.979" width="512px"><g><g><path d="m119.917 453.718v-280.503h-119.917v282.379h119.917zm-63.667-33.685v-29.969h30v29.969z" data-original="#000000" class="active-path" data-old_color="#000000" fill="#FFFFFF"/><path d="m275.01 445.013h184.237c9.641 0 17.484-7.843 17.484-17.484 0-9.74-7.843-17.583-17.484-17.583h-82.066v-30h93.616c9.641 0 17.484-7.843 17.484-17.484 0-9.74-7.843-17.583-17.484-17.583h-82.067v-30h93.929c9.641 0 17.484-7.843 17.484-17.484 0-9.74-7.843-17.583-17.484-17.583h-82.066v-30h93.902c9.641 0 17.484-7.843 17.484-17.484 0-9.74-7.843-17.583-17.484-17.583h-188.16v-30h30.401l18.294-88.241c1.896-8.179.437-16.572-4.108-23.632-4.544-7.061-11.579-11.864-19.809-13.526l-14.651-2.959-15.611 47.963c-8.283 24.643-25.198 45.455-47.626 58.603l-66.347 38.89h-36.961v221.867l34.63-.012z" data-original="#000000" class="active-path" data-old_color="#000000" fill="#FFFFFF"/></g></g> </svg>
